<svg width="32" height="30" viewBox="0 0 32 30" fill="none" xmlns="http://www.w3.org/2000/svg">
<path d="M31.0004 4.63995C29.6604 1.88995 25.8004 -0.360052 21.3104 0.949948C19.1648 1.56969 17.2929 2.89873 16.0004 4.71995C14.7078 2.89873 12.8359 1.56969 10.6904 0.949948C6.19036 -0.340052 2.34036 1.88995 1.00036 4.63995C-0.879645 8.48995 -0.0996444 12.8199 3.32036 17.5099C6.00036 21.1799 9.83035 24.9 15.3904 29.2199C15.5661 29.357 15.7825 29.4314 16.0054 29.4314C16.2282 29.4314 16.4446 29.357 16.6204 29.2199C22.1704 24.91 26.0104 21.2199 28.6904 17.5099C32.1004 12.8199 32.8804 8.48995 31.0004 4.63995Z" fill="#1C6C8A"/>
</svg>
