<svg width="32" height="30" viewBox="0 0 32 30" fill="none" xmlns="http://www.w3.org/2000/svg">
<path d="M16.0004 29.4299C15.7794 29.4293 15.5649 29.3554 15.3904 29.2199C9.83035 24.9 6.00036 21.1799 3.32036 17.5099C-0.0996444 12.8199 -0.879645 8.48995 1.00036 4.63995C2.34036 1.88995 6.19036 -0.360052 10.6904 0.949948C12.8359 1.56969 14.7078 2.89873 16.0004 4.71995C17.2929 2.89873 19.1648 1.56969 21.3104 0.949948C25.8004 -0.340052 29.6604 1.88995 31.0004 4.63995C32.8804 8.48995 32.1004 12.8199 28.6804 17.5099C26.0004 21.1799 22.1704 24.9 16.6104 29.2199C16.4358 29.3554 16.2213 29.4293 16.0004 29.4299ZM8.13036 2.57995C7.05961 2.53828 5.99773 2.789 5.0587 3.3052C4.11967 3.8214 3.33896 4.58359 2.80036 5.50995C1.25036 8.68995 1.95036 12.2299 4.94036 16.3199C8.11792 20.4185 11.8388 24.0654 16.0004 27.1599C20.1613 24.0684 23.8821 20.425 27.0604 16.3299C30.0604 12.2299 30.7504 8.68995 29.2004 5.51995C28.2004 3.51995 25.2004 1.92995 21.8604 2.86995C20.7894 3.18645 19.7966 3.72367 18.9458 4.44702C18.095 5.17038 17.405 6.06386 16.9204 7.06995C16.845 7.25336 16.7169 7.41023 16.5521 7.52063C16.3874 7.63104 16.1936 7.68998 15.9954 7.68998C15.7971 7.68998 15.6033 7.63104 15.4386 7.52063C15.2739 7.41023 15.1457 7.25336 15.0704 7.06995C14.5893 6.06134 13.9006 5.16578 13.0492 4.44197C12.1979 3.71816 11.2032 3.18245 10.1304 2.86995C9.48033 2.68115 8.80723 2.58355 8.13036 2.57995Z" fill="#444444"/>
</svg>
